<?xml version="1.0" standalone="no"?>
<!DOCTYPE svg PUBLIC "-//W3C//DTD SVG 1.1//EN" "http://www.w3.org/Graphics/SVG/1.1/DTD/svg11.dtd" >
<svg xmlns="http://www.w3.org/2000/svg">
<metadata>Generated by IcoMoon</metadata>
<defs>
<font id="CustomIcons" horiz-adv-x="1024">
<font-face units-per-em="1024" ascent="960" descent="-64" />
<missing-glyph horiz-adv-x="1024" />
<glyph unicode="&#x20;" horiz-adv-x="512" d="" />
<glyph unicode="&#xe900;" glyph-name="arrow-down" d="M512 185.856l-460.8 460.8h921.6l-231.424-229.376z" />
<glyph unicode="&#xe901;" glyph-name="arrow-left" d="M280.576 417.28l231.424 229.376 229.376 231.424v-921.6l-229.376 229.376z" />
<glyph unicode="&#xe902;" glyph-name="arrow-right" d="M741.376 417.28l-229.376-231.424-231.424-229.376v921.6l231.424-231.424z" />
<glyph unicode="&#xe903;" glyph-name="arrow-up" d="M512 646.656l460.8-460.8h-921.6l229.376 231.424z" />
<glyph unicode="&#xe904;" glyph-name="menu1" d="M971.237 386.398c-3.773-26.462-26.247-46.188-52.763-46.188h-602.974l8.839-53.895h540.834c29.48 0 53.302-24.091 53.302-53.895s-23.821-53.895-53.302-53.895c0 0-585.944 0-585.997 0-6.845 0-13.366 1.455-19.564 4.042-2.21 0.862-3.934 2.371-5.982 3.557-3.611 1.994-7.168 4.042-10.24 6.952-1.94 1.886-3.395 3.934-5.066 6.036-2.425 3.126-4.689 6.090-6.413 9.647-1.347 2.587-1.994 5.282-2.856 8.138-0.755 2.264-1.994 4.258-2.371 6.683l-99.112 601.681h-74.752c-29.48 0-53.248 24.091-53.248 53.895s23.768 53.895 53.248 53.895h119.862c26.031 0 48.29-19.079 52.547-45.056l10.402-62.733h736.094c15.468 0 30.073-6.791 40.259-18.594 10.132-11.749 14.713-27.432 12.504-42.954l-53.248-377.317zM705.374 448h166.912l15.198 107.789h-182.11v-107.789zM439.027 717.474h-185.667l18.001-109.406c2.479 0.808 5.012 1.617 7.869 1.617h159.798v107.789zM439.027 555.789h-159.043l17.731-107.789h141.312v107.789zM652.126 717.474h-159.798v-107.789h159.798v107.789zM652.126 555.789h-159.798v-107.789h159.798v107.789zM705.374 717.474v-107.789h189.763l15.198 107.789h-204.962zM359.155 124.632c44.14 0 79.872-36.217 79.872-80.842s-35.732-80.842-79.872-80.842c-44.14 0-79.926 36.217-79.926 80.842s35.786 80.842 79.926 80.842zM838.548 124.632c44.14 0 79.926-36.217 79.926-80.842s-35.786-80.842-79.926-80.842c-44.086 0-79.872 36.217-79.872 80.842s35.786 80.842 79.872 80.842z" />
<glyph unicode="&#xe905;" glyph-name="menu2" d="M964.716 900.716h-900.042c-32.337 0-53.895-26.947-53.895-53.895v-237.137c0-32.337 26.947-53.895 53.895-53.895h16.168v-495.832c0-32.337 26.947-53.895 53.895-53.895h749.137c32.337 0 53.895 26.947 53.895 53.895v495.832h21.558c32.337 0 53.895 26.947 53.895 53.895v237.137c5.389 26.947-16.168 53.895-48.505 53.895zM668.295 469.558c0-21.558-21.558-43.116-43.116-43.116h-220.968c-21.558 0-43.116 21.558-43.116 43.116v0c0 21.558 21.558 43.116 43.116 43.116h220.968c26.947 0 43.116-16.168 43.116-43.116v0zM916.211 658.189h-797.642v134.737h797.642v-134.737z" />
<glyph unicode="&#xe906;" glyph-name="menu3" d="M963.194 174.446l-72.070-73.192c0.195-3.413 0.341-6.827 0.341-10.289 0-85.577-68.364-154.965-152.674-154.965-84.358 0-152.674 69.388-152.674 154.965s68.315 154.917 152.674 154.917c33.109 0 63.781-10.728 88.844-28.916l46.86 47.543c7.753 7.899 18.042 12.19 29.013 12.19 10.923 0 21.26-4.291 29.013-12.19l30.671-31.159c7.753-7.851 12.044-18.334 12.044-29.452s-4.291-21.553-12.044-29.452zM929.89 218.331l-13.214 13.41c-3.121 3.121-7.314 4.925-11.654 4.925-4.389 0-8.582-1.755-11.703-4.925l-121.954-123.758-43.252 43.788c-6.485 6.534-16.92 6.534-23.308 0l-13.117-13.312c-6.437-6.534-6.437-17.115 0-23.65l68.023-69.193c3.072-3.121 7.314-4.925 11.654-4.925v0c4.389 0 8.582 1.804 11.703 4.925l146.822 149.016c6.437 6.534 6.437 17.164 0 23.698zM458.557 804.45c19.358-19.651 32.134-43.398 38.327-68.559l-137.265-31.89 31.403 139.362c24.771-6.29 48.226-19.261 67.535-38.912zM220.648 404.748h50.176c13.897 0 25.21-11.459 25.21-25.551 0-14.141-11.313-25.6-25.21-25.6h-50.176c-13.897 0-25.21 11.459-25.21 25.6 0 14.092 11.313 25.551 25.21 25.551zM220.648 215.503h164.913c13.897 0 25.21-11.459 25.21-25.551s-11.313-25.6-25.21-25.6h-164.913c-13.897 0-25.21 11.508-25.21 25.6s11.313 25.551 25.21 25.551zM220.648 310.15h193.634c13.897 0 25.21-11.459 25.21-25.6 0-14.092-11.313-25.551-25.21-25.551h-193.634c-13.897 0-25.21 11.459-25.21 25.551 0 14.141 11.313 25.6 25.21 25.6zM418.914 554.837c-56.954-57.832-149.309-57.832-206.312 0-56.954 57.832-56.954 151.552 0 209.384 37.644 38.181 90.697 51.151 138.776 38.912l-31.403-139.362 137.314 31.89c12.044-48.811-0.731-102.644-38.376-140.824zM742.205 734.818h-128.536c-13.41 0-24.235 10.971-24.235 24.576v134.437h-475.477v-886.638h441.003c11.264-25.21 27.404-47.689 47.25-66.17h-494.787c-32.329 0-58.661 26.722-58.661 59.538v899.901c0 32.817 26.331 59.538 58.661 59.538h514.146c5.218 0 10.191-2.097 13.848-5.803l166.278-168.765c3.657-3.755 5.754-8.777 5.754-14.043v-489.667c-20.724 7.802-42.667 12.044-65.195 12.581l-0.049 440.515z" />
<glyph unicode="&#xe907;" glyph-name="menu4" d="M926.427 70.29c0 15.994 0.098 2.292 0 0zM512-64c-353.426 0-414.427 115.566-414.427 115.566 0 13.41 0 21.114-0.049 25.307 0.098-2.243 0.244-1.219 0.634 17.944 4.681 234.545 40.229 302.178 293.693 345.186 0 0 36.035-43.203 120.149-43.203 84.066 0 120.149 43.203 120.149 43.203 256.244-43.447 289.743-112.104 293.79-353.036 0.244-15.409 0.39-18.042 0.488-16.677-0.049-4.096-0.049-10.094-0.049-18.725 0 0-61.001-115.566-414.379-115.566zM512 459.215c-121.173 0-219.429 112.104-219.429 250.392s32.232 250.392 219.429 250.392c187.148 0 219.429-112.104 219.429-250.392s-98.255-250.392-219.429-250.392zM97.524 76.873c-0.049 2.389 0 8.436 0 0z" />
<glyph unicode="&#xe908;" glyph-name="menu5" d="M883.712 560.175l-25.879 59.904c0 0 60.276 132.329 54.877 137.449l-79.686 75.823c-5.539 5.26-141.452-55.156-141.452-55.156l-62.697 24.669c0 0-55.343 134.144-62.976 134.144h-112.454c-7.866 0-59.113-134.47-59.113-134.47l-62.557-24.716c0 0-138.799 57.437-144.105 52.317l-79.593-75.962c-5.539-5.213 57.856-134.935 57.856-134.935l-25.879-59.811c0 0-140.66-52.783-140.66-59.904v-107.427c0-7.494 140.94-56.413 140.94-56.413l25.926-59.764c0 0-60.23-132.236-54.97-137.356l79.732-76.009c5.399-5.12 141.359 55.296 141.359 55.296l62.743-24.762c0 0 55.343-134.097 63.023-134.097h112.5c7.773 0 59.066 134.47 59.066 134.47l62.79 24.762c0 0 138.519-57.484 143.825-52.457l79.686 75.962c5.539 5.306-57.949 134.935-57.949 134.935l25.833 59.811c0 0 140.707 52.876 140.707 60.090v107.38c0.047 7.401-140.893 56.227-140.893 56.227zM676.399 448.047c0-86.388-73.775-156.765-164.399-156.765-90.484 0-164.352 70.377-164.352 156.765 0 86.342 73.868 156.625 164.352 156.625 90.671-0.047 164.399-70.284 164.399-156.625z" />
<glyph unicode="&#xe909;" glyph-name="menu6" d="M0 375.487c0-41.889 28.291-76.776 66.465-86.849v-295.722h-44.318c-12.193 0-22.147-10.073-22.147-22.504s9.954-22.504 22.147-22.504h664.647c12.312 0 22.171 10.073 22.171 22.504s-9.859 22.504-22.171 22.504h-44.294v295.722c38.15 10.073 66.465 44.961 66.465 86.849v22.504h-708.965v-22.504zM443.106 285.47c48.985 0 88.612 40.317 88.612 90.017 0-41.889 28.291-76.776 66.465-86.849v-295.722h-332.324v292.554c48.985 0 88.612 40.317 88.612 90.017 0-49.7 39.722-90.017 88.636-90.017zM243.712 288.637v-295.722h-132.929v295.722c38.15 10.073 66.441 44.961 66.441 86.849 0-41.889 28.315-76.776 66.489-86.849zM620.33 600.528h-531.718l-88.612-180.033h708.965l-88.636 180.033zM187.178 550.519l-44.294-90.017c-2-3.953-5.882-6.239-9.954-6.239-1.643 0-3.334 0.333-4.929 1.167-5.453 2.786-7.716 9.549-4.953 15.074l44.318 90.017c2.762 5.549 9.383 7.787 14.836 5.072 5.501-2.786 7.668-9.549 4.977-15.074zM275.813 550.519l-44.318-90.017c-2-3.953-5.882-6.239-9.954-6.239-1.643 0-3.334 0.333-4.929 1.167-5.453 2.786-7.692 9.549-4.929 15.074l44.294 90.017c2.786 5.549 9.454 7.787 14.86 5.072 5.501-2.786 7.644-9.549 4.977-15.074zM365.544 465.503c0-6.239-4.929-11.24-11.073-11.24-6.096 0-11.073 5.001-11.073 11.24v90.017c0 6.239 4.977 11.264 11.073 11.264 6.144 0 11.073-5.025 11.073-11.264v-90.017zM492.782 455.668c-1.738-0.976-3.548-1.405-5.382-1.405-3.882 0-7.692 2.096-9.692 5.834l-48.461 90.017c-2.929 5.453-0.953 12.312 4.429 15.265 5.263 2.977 12.097 1.048 15.050-4.453l48.461-90.017c2.858-5.453 0.953-12.312-4.406-15.241zM580.965 455.43c-1.572-0.833-3.215-1.167-4.929-1.167-4.072 0-7.978 2.286-9.883 6.239l-44.294 90.017c-2.786 5.525-0.524 12.288 4.929 15.074 5.358 2.762 12.121 0.524 14.884-5.072l44.318-90.017c2.667-5.525 0.5-12.288-5.025-15.074zM188.321 124.511v51.867c-6.501 3.953-11.097 10.812-11.097 19.075 0 12.431 9.954 22.504 22.171 22.504 12.288 0 22.147-10.073 22.147-22.504 0-8.263-4.548-15.122-11.073-19.075v-51.867c6.525-3.953 11.073-10.812 11.073-19.075 0-12.431-9.859-22.504-22.147-22.504-12.217 0-22.171 10.073-22.171 22.504 0 8.263 4.596 15.122 11.097 19.075zM88.612 645.537c0 12.431 9.954 22.504 22.171 22.504h487.4c12.288 0 22.147-10.073 22.147-22.504s-9.859-22.504-22.147-22.504h-487.4c-12.217 0-22.171 10.073-22.171 22.504zM388.31 164.995l-15.646 15.908 62.655 63.655 15.646-15.908-62.655-63.655zM388.31 101.34l-15.646 15.932 125.309 127.286 15.67-15.908-125.333-127.309zM497.974 180.903l15.67-15.908-62.678-63.655-15.646 15.932 62.655 63.631zM1007.83 364.461c-21.599-21.98-56.701-21.98-78.324 0l-135.549 137.692c31.411 20.504 58.13 47.652 78.324 79.562l135.549-137.692c21.623-21.98 21.623-57.606 0-79.562zM654.812 498.009c-122.356 0-221.565 100.757-221.565 225.042s99.209 225.042 221.565 225.042c122.332 0 221.541-100.757 221.541-225.042s-99.209-225.042-221.541-225.042zM654.812 891.844c-91.636 0-166.174-75.728-166.174-168.793s74.538-168.769 166.174-168.769c91.612 0 166.15 75.705 166.15 168.769s-74.538 168.793-166.15 168.793zM562.486 723.051h-36.912c0 72.371 57.987 131.286 129.238 131.286v-37.507c-50.914 0-92.327-42.079-92.327-93.779z" />
<glyph unicode="&#xe90a;" glyph-name="menu7" d="M1008.592 417.018l-354.304-374.379c-8.24-8.692-18.027-13.074-29.315-13.074s-21.052 4.382-29.315 13.074c-8.24 8.716-12.359 19.075-12.359 30.982v198.204h-291.792c-11.288 0-21.052 4.358-29.315 13.074s-12.383 19.051-12.383 30.982v264.263c0 11.931 4.12 22.242 12.383 30.958 8.24 8.716 18.027 13.074 29.315 13.074h291.792v198.204c0 11.931 4.12 22.266 12.359 30.982 8.263 8.716 18.027 13.074 29.315 13.074s21.075-4.358 29.315-13.074l354.304-374.379c8.263-8.716 12.383-19.051 12.383-30.982s-4.12-22.266-12.383-30.982zM415.577 818.259c-1.095-5.953-3.263-10.431-6.525-13.407-3.263-3.001-7.692-4.477-13.336-4.477h-208.42c-28.672 0-53.2-10.788-73.609-32.363-20.409-21.552-30.601-47.461-30.601-77.753v-484.495c0-30.268 10.192-56.201 30.601-77.753 20.409-21.575 44.937-32.339 73.609-32.339h203.204c0 0 2.5-0.238 7.478-0.691 5.001-0.476 7.501-1.167 7.501-2.072s1.738-2.191 5.215-3.786c3.477-1.596 5.001-3.667 4.548-6.168-0.429-2.548 0-5.644 1.31-9.335 0-1.834 0.214-6.43 0.643-13.764 0.452-7.335 0.548-13.407 0.333-18.218s-0.881-10.216-1.953-16.17c-1.095-5.977-3.263-10.454-6.501-13.431-3.263-2.977-7.716-4.477-13.36-4.477h-208.42c-51.676 0-95.851 19.385-132.548 58.177-36.697 38.745-55.034 85.421-55.034 140.026v484.495c0 54.582 18.337 101.257 55.034 140.026s80.872 58.154 132.548 58.154h208.42c5.644 0 10.526-2.167 14.646-6.525s6.192-9.526 6.192-15.479c0-1.834 0.214-6.43 0.643-13.764s0.548-13.431 0.333-18.241c-0.214-4.81-0.881-10.192-1.953-16.17z" />
<glyph unicode="&#xe90b;" glyph-name="cancel" horiz-adv-x="1022" d="M1010.71 158.138l-289.981 290.14 289.981 290.219c14.555 14.555 14.555 38.176 0 52.731l-158.193 158.273c-14.555 14.634-38.176 14.634-52.731 0l-289.981-290.14-289.981 290.14c-14.555 14.634-38.176 14.634-52.731 0l-158.193-158.273c-14.555-14.555-14.555-38.176 0-52.731l289.981-290.219-289.981-290.14c-14.555-14.634-14.555-38.256 0-52.811l158.193-158.273c14.555-14.555 38.176-14.555 52.731 0l289.981 290.219 289.981-290.219c14.555-14.555 38.176-14.555 52.731 0l158.193 158.273c14.555 14.555 14.555 38.176 0 52.811z" />
<glyph unicode="&#xe90c;" glyph-name="edit" d="M636.7 789.618l208.327-209.522-527.246-530.204-208.213 209.465 527.132 530.261zM1003.065 840.135l-92.9 93.412c-35.897 36.068-94.151 36.068-130.219 0l-88.974-89.486 208.327-209.465 103.765 104.334c27.876 28.046 27.876 73.159 0 101.205zM0.569-35.1c-3.812-17.124 11.605-32.54 28.672-28.331l232.107 56.604-208.156 209.465-52.622-237.739z" />
<glyph unicode="&#xe90d;" glyph-name="picture" horiz-adv-x="1278" d="M1257.6-64h-1237.376c-11.136 0-20.224 9.216-20.224 20.544v982.912c0 11.328 9.088 20.544 20.224 20.544h1237.376c11.2 0 20.288-9.216 20.288-20.544v-982.912c0-11.328-9.088-20.544-20.288-20.544zM1156.352 836.608h-1034.88v-705.408l291.968 398.016c1.536 2.112 3.904 3.328 6.464 3.392 2.688 0.064 4.992-1.088 6.592-3.072l246.848-308.8 193.152 172.672c3.328 3.008 8.384 2.752 11.456-0.448l278.4-292.992v736.64zM751.232 640.384c0 55.744 44.48 100.928 99.328 100.928s99.328-45.184 99.328-100.928c0-55.744-44.48-100.928-99.328-100.928s-99.328 45.184-99.328 100.928z" />
<glyph unicode="&#xe90e;" glyph-name="property" horiz-adv-x="1027" d="M1.347 148.938l-1.132 465.381c-0.054 22.905 23.498 38.373 44.625 29.373l426.092-181.086c11.803-5.012 19.456-16.492 19.456-29.211l1.132-465.381c0.054-22.905-23.498-38.373-44.679-29.373l-426.092 181.086c-11.749 5.012-19.402 16.492-19.402 29.211zM977.543 592.438l-393.162-169.337 1.024-430.673 393.162 169.337-1.024 430.673zM993.442 648.542c16.923 0.054 32.067-13.474 32.121-31.798l1.132-465.381c0-12.719-7.599-24.253-19.348-29.319l-425.176-183.080c-4.204-1.832-8.515-2.695-12.719-2.695-16.869-0.054-32.067 13.474-32.067 31.852l-1.132 465.381c-0.054 12.719 7.545 24.253 19.294 29.319l425.229 183.080c4.204 1.832 8.515 2.641 12.665 2.641v0zM510.329 910.686l-407.875-181.086 408.738-179.146 407.875 181.086-408.738 179.146zM510.221 960c4.419 0 8.839-0.916 12.989-2.695l448.296-196.5c25.438-11.156 25.492-46.996 0.162-58.26l-447.38-198.602c-4.096-1.832-8.569-2.749-12.989-2.803-4.419 0-8.839 0.916-12.989 2.749l-448.296 196.446c-25.438 11.156-25.492 46.996-0.108 58.26l447.326 198.602c4.15 1.886 8.569 2.803 12.989 2.803v0z" />
<glyph unicode="&#xe90f;" glyph-name="variant" d="M925.696 851.456h-665.6c-38.912 0-71.68-32.768-71.68-71.68v-49.152h-8.192c-38.912 0-71.68-32.768-71.68-71.68v-49.152h-10.24c-38.912 0-71.68-32.768-71.68-71.68v-417.792c0-38.912 32.768-71.68 71.68-71.68h665.6c38.912 0 71.68 32.768 71.68 71.68v49.152h8.192c38.912 0 71.68 32.768 71.68 71.68v49.152h8.192c38.912 0 71.68 32.768 71.68 71.68v417.792c2.048 38.912-30.72 71.68-69.632 71.68zM761.856 364.032v-241.664l-661.504-2.048v413.696h659.456l2.048-169.984zM841.728 241.152h-6.144v292.864c0 38.912-32.768 71.68-71.68 71.68h-501.76l-81.92 2.048v47.104h659.456v-364.544l2.048-49.152zM923.648 364.032h-6.144v292.864c0 38.912-32.768 71.68-71.68 71.68h-581.632v47.104h661.504l-2.048-411.648zM131.072 472.576v-323.584h536.576c0 0-212.992 126.976-282.624 169.984-63.488 38.912-253.952 153.6-253.952 153.6z" />
<glyph unicode="&#xe910;" glyph-name="refresh" d="M1016.455 249.182c-83.213-183.997-278.205-313.452-504.994-313.452-149.558 0-285.211 56.32-384.216 147.402l-37.133-52.17c-9.378-13.15-26.84-18.971-43.008-14.39-16.115 4.635-27.109 18.594-27.055 34.331l1.401 277.45c0.108 12.126 6.683 23.336 17.57 29.912 10.887 6.521 24.522 7.491 36.379 2.533l269.366-113.287c15.468-6.467 24.468-21.72 22.205-37.349-2.264-15.683-15.252-28.133-32.013-30.558l-48.99-7.060c62.518-45.218 140.45-72.435 225.496-72.435 154.301 0 286.666 88.333 342.932 213.639 13.635 30.397 45.487 50.176 80.68 50.176 29.642 0 57.29-13.905 73.674-36.972 16.33-23.067 19.24-52.278 7.707-77.77zM983.956 537.735c-10.887-6.521-24.576-7.491-36.379-2.533l-269.42 113.287c-15.414 6.467-24.468 21.666-22.205 37.349s15.306 28.079 32.013 30.504l48.99 7.114c-62.464 45.164-140.45 72.381-225.496 72.381-154.301 0-286.612-88.28-342.878-213.639-13.635-30.397-45.487-50.176-80.734-50.176-29.642 0-57.29 13.959-73.62 37.026-16.384 23.067-19.294 52.278-7.707 77.77 83.16 183.997 278.151 313.452 504.94 313.452 149.612 0 285.265-56.32 384.269-147.402l37.133 52.116c9.324 13.15 26.786 19.025 42.954 14.39 16.168-4.581 27.163-18.54 27.055-34.331l-1.401-277.45c-0.054-12.072-6.683-23.336-17.516-29.858z" />
<glyph unicode="&#xe911;" glyph-name="user" horiz-adv-x="819" d="M770.081-0.74c-39.198-14.155-79.675-24.661-120.417-33.27-78.691-16.633-159.803-29.417-240.568-29.99-80.764 0.572-161.876 13.357-240.566 29.99-40.744 8.612-81.216 19.118-120.419 33.27-31.306 11.309-49.783 16.56-48.503 54.018 1.653 48.362 7.317 96.944 15.75 144.553 10.213 57.674 23.212 142.226 73.519 179.811 29.087 21.733 66.759 28.861 100.063 41.966 16.208 6.372 30.728 12.705 44.357 19.913 45.991-50.494 105.962-76.907 175.788-76.907 69.846 0.003 129.824 26.417 175.822 76.907 13.627-7.206 28.148-13.538 44.357-19.913 33.303-13.105 70.974-20.234 100.066-41.966 50.301-37.585 63.304-122.137 73.517-179.811 8.431-47.609 14.093-96.191 15.748-144.553 1.28-37.461-17.196-42.712-48.513-54.018zM409.104 414.556c-151.381-0.012-205.829 151.733-220.103 276.36-17.579 153.541 54.988 269.084 220.103 269.084 165.143 0 237.668-115.551 220.105-269.086-14.262-124.628-68.727-276.349-220.105-276.358z" />
<glyph unicode="&#xe912;" glyph-name="stock" d="M303.104 173.568h73.728v-73.728h-73.728v73.728zM303.104 255.488h73.728v-73.728h-73.728v73.728zM303.104 341.504h73.728v-73.728h-73.728v73.728zM389.12 173.568h73.728v-73.728h-73.728v73.728zM389.12 255.488h73.728v-73.728h-73.728v73.728zM471.040 173.568h73.728v-73.728h-73.728v73.728zM552.96 173.568h73.728v-73.728h-73.728v73.728zM552.96 255.488h73.728v-73.728h-73.728v73.728zM634.88 173.568h73.728v-73.728h-73.728v73.728zM28.672 497.152c-20.48-16.384-16.384-28.672 8.192-28.672h950.272c24.576 0 28.672 12.288 8.192 24.576l-450.56 319.488c-20.48 16.384-53.248 12.288-73.728 0l-442.368-315.392zM851.968 22.016h-688.128c-40.96 0-77.824 36.864-77.824 77.824v385.024c0 40.96 36.864 77.824 77.824 77.824h684.032c45.056 0 77.824-36.864 77.824-77.824v-385.024c4.096-40.96-32.768-77.824-73.728-77.824zM163.84 497.152c-4.096 0-12.288-4.096-12.288-12.288v-385.024c0-4.096 4.096-12.288 12.288-12.288h684.032c4.096 0 12.288 4.096 12.288 12.288v385.024c0 4.096-4.096 12.288-12.288 12.288h-684.032z" />
<glyph unicode="&#xe913;" glyph-name="ask-for-product" d="M712.704 804.352l-49.152-47.104 126.976-126.976 196.608 196.608-47.104 47.104-149.504-147.456zM931.84 564.736c-12.288 16.384-32.768 26.624-53.248 26.624h-415.744c-28.672 0-51.2-20.48-61.44-57.344-16.384-57.344-71.68-133.12-124.928-208.896-28.672-40.96-59.392-83.968-83.968-122.88h-104.448v-20.48c0-100.352 73.728-126.976 114.688-126.976h452.608c0 0 0 0 0 0h4.096c32.768 2.048 59.392 20.48 67.584 47.104 16.384 53.248 59.392 124.928 100.352 194.56 47.104 79.872 96.256 161.792 112.64 225.28 4.096 16.384 2.048 30.72-8.192 43.008zM901.12 534.016c-16.384-59.392-63.488-139.264-108.544-215.040s-86.016-145.408-104.448-202.752c-4.096-12.288-18.432-18.432-30.72-18.432-14.336 2.048-67.584 10.24-67.584 86.016v20.48h-348.16c20.48 32.768 45.056 65.536 67.584 98.304 55.296 77.824 112.64 157.696 131.072 221.184 4.096 12.288 10.24 26.624 22.528 26.624h417.792c8.192 0 16.384-4.096 20.48-10.24 0-2.048 0-4.096 0-6.144zM493.568 464.384c14.336 0 34.816 10.24 43.008 20.48 8.192 12.288 2.048 20.48-14.336 20.48-14.336 0-34.816-10.24-43.008-20.48-8.192-12.288-2.048-20.48 14.336-20.48zM792.576 505.344h-196.608c-14.336 0-34.816-10.24-43.008-20.48-8.192-12.288-2.048-20.48 14.336-20.48h196.608c14.336 0 34.816 10.24 43.008 20.48s2.048 20.48-14.336 20.48zM483.328 404.992c8.192 12.288 2.048 20.48-14.336 20.48s-34.816-10.24-43.008-20.48c-8.192-12.288-2.048-20.48 14.336-20.48s34.816 8.192 43.008 20.48zM741.376 425.472h-196.608c-14.336 0-34.816-10.24-43.008-20.48-8.192-12.288-2.048-20.48 14.336-20.48h196.608c14.336 0 34.816 10.24 43.008 20.48 6.144 12.288 0 20.48-14.336 20.48zM417.792 347.648c-14.336 0-34.816-10.24-43.008-20.48-8.192-12.288-2.048-20.48 14.336-20.48s34.816 10.24 43.008 20.48c6.144 10.24 0 20.48-14.336 20.48zM690.176 347.648h-198.656c-14.336 0-34.816-10.24-43.008-20.48-8.192-12.288-2.048-20.48 14.336-20.48h196.608c14.336 0 34.816 10.24 43.008 20.48s2.048 20.48-12.288 20.48z" />
<glyph unicode="&#xe914;" glyph-name="completed" d="M712.704 804.352l-49.152-47.104 126.976-126.976 196.608 196.608-47.104 47.104-149.504-147.456zM501.76 523.776l-49.152-116.736c-2.048-4.096-6.144-6.144-10.24-6.144l-245.76-22.528c-6.144 0-10.24-6.144-10.24-12.288l4.096-192.512c0-6.144 4.096-10.24 8.192-10.24l288.768-61.44c6.144-2.048 14.336-2.048 20.48-2.048v421.888c4.096 16.384 0 18.432-6.144 2.048zM466.944 165.376l-108.544 16.384v57.344h108.544v-73.728zM419.84 429.568l-288.768-30.72c-8.192 0-14.336 8.192-12.288 16.384l77.824 163.84c2.048 4.096 4.096 6.144 8.192 6.144l317.44 59.392-92.16-208.896c-2.048-4.096-6.144-6.144-10.24-6.144zM849.92 378.368l-245.76 22.528c-4.096 0-8.192 4.096-10.24 6.144l-47.104 116.736c-6.144 14.336-10.24 14.336-10.24-2.048v-421.888c8.192 0 14.336 0 20.48 2.048l288.768 61.44c6.144 2.048 8.192 6.144 8.192 10.24l4.096 192.512c2.048 8.192-4.096 12.288-8.192 12.288zM747.52 275.968h-14.336v-86.016c0-4.096-4.096-8.192-8.192-8.192l-22.528-4.096c-4.096 0-10.24 2.048-10.24 6.144v90.112h-16.384c-8.192 0-12.288 6.144-8.192 10.24l36.864 47.104c4.096 4.096 12.288 4.096 16.384 0l32.768-47.104c4.096-2.048 0-8.192-6.144-8.192zM915.456 398.848l-288.768 28.672c-4.096 0-8.192 2.048-10.24 6.144l-92.16 208.896 317.44-59.392c4.096 0 6.144-2.048 8.192-6.144l77.824-163.84c4.096-6.144-2.048-14.336-12.288-14.336z" />
<glyph unicode="&#xe915;" glyph-name="confirm" d="M514.048 658.944c-165.888 0-311.296-90.112-389.12-225.28 77.824-135.168 223.232-225.28 389.12-225.28s311.296 90.112 389.12 225.28c-77.824 135.168-223.232 225.28-389.12 225.28zM512 370.176c-43.008 0-77.824 34.816-77.824 77.824s34.816 77.824 77.824 77.824 77.824-34.816 77.824-77.824c0-43.008-34.816-77.824-77.824-77.824zM724.992 804.352l-49.152-47.104 126.976-126.976 196.608 196.608-47.104 47.104-149.504-147.456z" />
<glyph unicode="&#xe916;" glyph-name="contact-ok" d="M667.648 804.352l-47.104-47.104 126.976-126.976 196.608 196.608-49.152 47.104-147.456-147.456zM378.88 343.552c69.632 0 124.928 67.584 124.928 153.6 0 83.968-18.432 153.6-124.928 153.6s-124.928-67.584-124.928-153.6c0-83.968 55.296-153.6 124.928-153.6zM141.312 110.080c0 6.144 0 2.048 0 0v0zM616.448 105.984c0 2.048 0 10.24 0 0v0zM616.448 116.224c-2.048 147.456-22.528 188.416-167.936 215.040 0 0-20.48-26.624-69.632-26.624s-69.632 26.624-69.632 26.624c-145.408-26.624-165.888-67.584-167.936-210.944 0-12.288 0-12.288 0-10.24 0-2.048 0-8.192 0-16.384 0 0 34.816-69.632 237.568-69.632s237.568 69.632 237.568 69.632c0 6.144 0 8.192 0 12.288 0 0 0 2.048 0 10.24zM579.584 394.752c-6.144 0-10.24 2.048-14.336 6.144-8.192 8.192-8.192 20.48 0 28.672 24.576 24.576 24.576 63.488 0 86.016-8.192 8.192-8.192 20.48 0 28.672s20.48 8.192 28.672 0c38.912-38.912 38.912-104.448 0-145.408-4.096-2.048-10.24-4.096-14.336-4.096zM657.408 323.072c-6.144 0-10.24 2.048-14.336 6.144-8.192 8.192-8.192 20.48 0 28.672 63.488 63.488 63.488 167.936 0 231.424-8.192 8.192-8.192 20.48 0 28.672s20.48 8.192 28.672 0c79.872-79.872 79.872-208.896 0-288.768-4.096-4.096-10.24-6.144-14.336-6.144z" />
<glyph unicode="&#xe917;" glyph-name="contact" d="M645.12 325.12l-73.728 65.536-210.944-182.272c8.192-6.144 18.432-12.288 28.672-12.288h512c12.288 0 22.528 4.096 28.672 12.288l-210.944 182.272-73.728-65.536zM931.84 613.888c-8.192 8.192-18.432 12.288-28.672 12.288h-514.048c-12.288 0-22.528-4.096-28.672-12.288l286.72-245.76 284.672 245.76zM346.112 587.264v-354.304l206.848 174.080zM737.28 407.040l206.848-174.080v354.304zM75.776 587.264h206.848c10.24 0 18.432 8.192 18.432 18.432v0c0 10.24-8.192 18.432-18.432 18.432h-206.848c-10.24 0-18.432-8.192-18.432-18.432v0c0-10.24 8.192-18.432 18.432-18.432zM137.216 488.96h145.408c10.24 0 18.432 8.192 18.432 18.432v0c0 10.24-8.192 18.432-18.432 18.432h-145.408c-10.24 0-18.432-8.192-18.432-18.432v0c0-10.24 8.192-18.432 18.432-18.432zM198.656 390.656h83.968c10.24 0 18.432 8.192 18.432 18.432v0c0 10.24-8.192 18.432-18.432 18.432h-83.968c-10.24 0-18.432-8.192-18.432-18.432v0c0-10.24 8.192-18.432 18.432-18.432z" />
<glyph unicode="&#xe918;" glyph-name="products-received" d="M714.752 804.352l-49.152-47.104 126.976-126.976 196.608 196.608-47.104 47.104-149.504-147.456zM507.904 251.392l-18.432-45.056c0-2.048-2.048-2.048-4.096-2.048l-96.256-8.192c-2.048 0-4.096-2.048-4.096-4.096l2.048-75.776c0-2.048 2.048-4.096 4.096-4.096l112.64-24.576c2.048 0 6.144 0 8.192 0v163.84c0 6.144-2.048 6.144-4.096 0zM493.568 112.128l-43.008 6.144v22.528h43.008v-28.672zM475.136 214.528l-112.64-12.288c-4.096 0-6.144 4.096-4.096 6.144l30.72 63.488c0 2.048 2.048 2.048 4.096 2.048l124.928 22.528-36.864-81.92c-2.048 2.048-4.096 0-6.144 0zM643.072 196.096l-96.256 8.192c-2.048 0-4.096 2.048-4.096 2.048l-18.432 45.056c-2.048 6.144-4.096 6.144-4.096 0v-163.84c2.048 0 6.144 0 8.192 0l112.64 24.576c2.048 0 4.096 2.048 4.096 4.096l2.048 75.776c0 2.048-2.048 4.096-4.096 4.096zM604.16 155.136h-6.144v-32.768c0-2.048-2.048-2.048-4.096-4.096l-8.192-2.048c-2.048 0-4.096 0-4.096 2.048v34.816h-6.144c-2.048 0-4.096 2.048-4.096 4.096l14.336 18.432c2.048 2.048 4.096 2.048 6.144 0l12.288-18.432c4.096 0 2.048-2.048 0-2.048zM669.696 204.288l-112.64 12.288c-2.048 0-2.048 2.048-4.096 2.048l-36.864 81.92 124.928-22.528c2.048 0 2.048-2.048 4.096-2.048l30.72-63.488c0-6.144-2.048-10.24-6.144-8.192zM512 572.928l-350.208-145.408v-348.16h73.728v288.768h555.008v-288.768h73.728v348.16z" />
<glyph unicode="&#xe919;" glyph-name="home" d="M139.237 17.253c0 0-0.91-22.89 21.45-22.89 27.817 0 258.122 0.303 258.122 0.303l0.379 211.508c0 0-3.638 34.866 30.205 34.866h107.099c40.020 0 37.557-34.866 37.557-34.866l-0.455-210.826c0 0 218.367 0 252.665 0 28.385 0 27.097 28.499 27.097 28.499v389.931l-356.088 316.75-378.031-316.75c0 0 0-396.525 0-396.525zM0 443.263c0 0 32.099-59.159 102.097 0l418.317 353.89 392.205-351.692c81.026-58.438 111.382 0 111.382 0l-503.587 456.176-520.413-458.375zM903.106 797.987h-100.884l0.417-122.334 100.467-85.232z" />
</font>
</defs>
</svg>
